<?xml version="1.0" encoding="UTF-8" standalone="no"?>
<!-- Created with Inkscape (http://www.inkscape.org/) -->

<svg
   width="100"
   height="100"
   viewBox="0 0 26.458334 26.458334"
   version="1.1"
   id="svg1"
   xml:space="preserve"
   inkscape:version="1.3.2 (091e20ef0f, 2023-11-25, custom)"
   sodipodi:docname="logo.svg"
   xmlns:inkscape="http://www.inkscape.org/namespaces/inkscape"
   xmlns:sodipodi="http://sodipodi.sourceforge.net/DTD/sodipodi-0.dtd"
   xmlns:xlink="http://www.w3.org/1999/xlink"
   xmlns="http://www.w3.org/2000/svg"
   xmlns:svg="http://www.w3.org/2000/svg"><sodipodi:namedview
     id="namedview1"
     pagecolor="#ffffff"
     bordercolor="#000000"
     borderopacity="0.25"
     inkscape:showpageshadow="2"
     inkscape:pageopacity="0.0"
     inkscape:pagecheckerboard="0"
     inkscape:deskcolor="#d1d1d1"
     inkscape:document-units="mm"
     inkscape:zoom="3.2386746"
     inkscape:cx="-19.452402"
     inkscape:cy="68.546559"
     inkscape:window-width="1520"
     inkscape:window-height="810"
     inkscape:window-x="0"
     inkscape:window-y="0"
     inkscape:window-maximized="1"
     inkscape:current-layer="g1"
     inkscape:export-bgcolor="#ffffffff"><inkscape:page
       x="0"
       y="0"
       width="26.458334"
       height="26.458334"
       id="page1"
       margin="0"
       bleed="0"
       inkscape:export-filename="logo.png"
       inkscape:export-xdpi="3840"
       inkscape:export-ydpi="3840" /><inkscape:page
       x="221.66667"
       y="0"
       width="3.2900054"
       height="3.1044443"
       id="page2"
       margin="0"
       bleed="0" /></sodipodi:namedview><defs
     id="defs1" /><g
     inkscape:label="Layer 1"
     inkscape:groupmode="layer"
     id="layer1" /><g
     id="g1"
     inkscape:groupmode="layer"
     inkscape:label="1"
     transform="matrix(0.26458333,0,0,0.26458333,221.66667,0)"><path
       id="path1-9"
       d="m -802.9573,34.052146 v 1.525296 c 1.17332,0 2.2293,0 3.40262,0.117326 0.52799,0.05867 1.11465,0.175996 1.46665,0.703987 0.35198,0.586655 0.29332,1.407971 0.29332,2.111951 v 25.108745 c 0,0.703981 0.0587,1.466634 -0.29332,2.053288 -0.352,0.586646 -0.87999,0.645317 -1.46665,0.762644 -1.17332,0.117333 -2.2293,0.117333 -3.40262,0.117333 v 1.525296 h 20.23969 v -1.525296 c -1.11466,0 -2.11198,0 -3.22663,-0.117333 -0.52798,-0.05868 -1.05599,-0.117327 -1.46664,-0.46932 -0.41067,-0.410659 -0.41067,-0.997313 -0.41067,-1.642631 V 52.355713 h 3.40262 c 0.58666,0 1.29066,0 1.87732,0 2.69862,-0.234659 5.39724,-0.93864 7.68521,-2.405272 0.93864,-0.586655 1.81863,-1.349306 2.52263,-2.287948 0.46932,-0.586654 0.87998,-1.290634 1.1733,-1.994622 0.23468,-0.586647 0.352,-1.114639 0.41067,-1.642624 0.46931,-3.461255 -2.11197,-6.394519 -4.92793,-7.978485 -1.99464,-1.173302 -4.22392,-1.759957 -6.51189,-1.994616 -1.81864,-0.117328 -3.63728,0 -5.45593,0 z m 13.55179,1.525296 v 30.975274 h -3.98927 V 35.577442 Z m 1.58396,15.428974 V 37.396067 c 0,-0.46932 0,-0.997312 0.29335,-1.349305 0.17598,-0.293324 0.52797,-0.351987 0.87999,-0.41065 0.58665,-0.05867 1.17331,-0.05867 1.81863,-0.05867 1.8773,0 3.81328,0.293331 5.51457,1.114645 0.76266,0.410651 1.46665,0.938642 2.05331,1.583959 0.93864,1.114639 1.29065,2.581271 1.40798,3.98924 0.11733,1.935952 0,4.2239 -1.29065,5.866529 -0.46932,0.645318 -1.11465,1.173309 -1.81864,1.525296 -2.69862,1.583965 -5.86657,1.349306 -8.85854,1.349306 z m 0,0"
       style="fill:#000000;fill-opacity:1;fill-rule:nonzero;stroke:none;stroke-width:5.00613"
       aria-label="P" /><ellipse
       style="fill:none;stroke:#000000;stroke-width:0.60000001;stroke-dasharray:none;stroke-opacity:1"
       id="path2"
       cx="-760.68939"
       cy="-210.8864"
       rx="46.43951"
       ry="46.439514"
       transform="rotate(-19.126597)" /><text
       xml:space="preserve"
       style="font-size:10.6667px;fill:#000000;fill-opacity:1;stroke:#000000;stroke-width:0;stroke-dasharray:none;stroke-opacity:1"
       id="text2"
       transform="rotate(-19.126597,-790.41519,48.265405)"><textPath
         xlink:href="#path1"
         id="textPath1"
         style="font-style:normal;font-variant:normal;font-weight:normal;font-stretch:normal;font-size:10.6667px;font-family:'Latin Modern Roman';-inkscape-font-specification:'Latin Modern Roman, ';fill:#000000;fill-opacity:1;stroke-width:0;stroke-dasharray:none">Peddie Mathematics Club</textPath></text><ellipse
       style="fill:none;fill-opacity:1;stroke:#000000;stroke-width:0;stroke-dasharray:none"
       id="path1"
       cx="767.98627"
       cy="-184.62096"
       rx="34.954712"
       ry="34.955547"
       transform="matrix(-0.98532897,-0.17066582,0.17062638,-0.9853358,0,0)" /></g></svg>
