<?xml version="1.0" encoding="UTF-8" standalone="no"?>
<!-- Created with Inkscape (http://www.inkscape.org/) -->

<svg
   width="100"
   height="100"
   viewBox="0 0 26.458334 26.458334"
   version="1.1"
   id="svg1"
   xml:space="preserve"
   inkscape:version="1.3.2 (091e20ef0f, 2023-11-25, custom)"
   sodipodi:docname="logo.svg"
   xmlns:inkscape="http://www.inkscape.org/namespaces/inkscape"
   xmlns:sodipodi="http://sodipodi.sourceforge.net/DTD/sodipodi-0.dtd"
   xmlns="http://www.w3.org/2000/svg"
   xmlns:svg="http://www.w3.org/2000/svg"><sodipodi:namedview
     id="namedview1"
     pagecolor="#ffffff"
     bordercolor="#000000"
     borderopacity="0.25"
     inkscape:showpageshadow="2"
     inkscape:pageopacity="0.0"
     inkscape:pagecheckerboard="0"
     inkscape:deskcolor="#d1d1d1"
     inkscape:document-units="mm"
     inkscape:zoom="5.0517211"
     inkscape:cx="62.750891"
     inkscape:cy="47.310608"
     inkscape:window-width="1520"
     inkscape:window-height="810"
     inkscape:window-x="0"
     inkscape:window-y="0"
     inkscape:window-maximized="1"
     inkscape:current-layer="g1"
     inkscape:export-bgcolor="#ffffff00"><inkscape:page
       x="0"
       y="0"
       width="26.458334"
       height="26.458334"
       id="page1"
       margin="0"
       bleed="0"
       inkscape:export-filename="logo.png"
       inkscape:export-xdpi="3840"
       inkscape:export-ydpi="3840" /><inkscape:page
       x="221.66667"
       y="0"
       width="3.2900054"
       height="3.1044443"
       id="page2"
       margin="0"
       bleed="0" /></sodipodi:namedview><defs
     id="defs1" /><g
     inkscape:label="Layer 1"
     inkscape:groupmode="layer"
     id="layer1" /><g
     id="g1"
     inkscape:groupmode="layer"
     inkscape:label="1"
     transform="matrix(0.26458333,0,0,0.26458333,221.66667,0)"><path
       id="path1-9"
       d="m -808.15159,25.282891 v 2.102617 c 1.61743,0 3.07308,0 4.6905,0.161733 0.72783,0.08088 1.53655,0.242611 2.02177,0.970445 0.48521,0.808702 0.40434,1.940884 0.40434,2.911319 v 34.612343 c 0,0.970436 0.081,2.021752 -0.40434,2.830452 -0.48522,0.808691 -1.21305,0.889569 -2.02177,1.051303 -1.61742,0.161743 -3.07307,0.161743 -4.6905,0.161743 v 2.102617 h 27.90036 v -2.102617 c -1.53655,0 -2.91136,0 -4.4479,-0.161743 -0.72782,-0.08088 -1.45568,-0.161734 -2.02176,-0.646955 -0.5661,-0.566093 -0.5661,-1.374794 -0.5661,-2.264364 V 50.514313 h 4.69049 c 0.80872,0 1.77918,0 2.5879,0 3.72003,-0.323477 7.44007,-1.293913 10.59403,-3.315662 1.29391,-0.808702 2.50697,-1.860015 3.47744,-3.15393 0.64696,-0.808701 1.21305,-1.779136 1.61739,-2.749582 0.3235,-0.808691 0.48523,-1.536527 0.56611,-2.264353 0.64694,-4.771331 -2.91135,-8.814828 -6.79314,-10.998321 -2.7496,-1.617395 -5.82267,-2.426097 -8.97662,-2.749574 -2.50701,-0.161737 -5.01399,0 -7.52099,0 z m 18.68111,2.102617 v 42.699338 h -5.49921 V 27.385508 Z m 2.18349,21.268803 V 29.892478 c 0,-0.646956 0,-1.374792 0.40437,-1.860013 0.24259,-0.404347 0.72781,-0.485214 1.21307,-0.56608 0.80869,-0.08088 1.61741,-0.08088 2.50697,-0.08088 2.58785,0 5.25661,0.404355 7.60183,1.536535 1.05132,0.566081 2.02177,1.293916 2.83048,2.183484 1.29392,1.536526 1.77916,3.558275 1.94089,5.499157 0.16174,2.668705 0,5.822636 -1.77915,8.086996 -0.64696,0.889569 -1.53655,1.617404 -2.50699,2.102618 -3.72004,2.183491 -8.08706,1.860014 -12.21147,1.860014 z m 0,0"
       style="fill:#000000;fill-opacity:1;fill-rule:nonzero;stroke:none;stroke-width:6.90094"
       aria-label="P" /><circle
       style="fill:none;stroke:#000000;stroke-width:0.622413;stroke-dasharray:none;stroke-opacity:1"
       id="path2"
       cx="-760.28851"
       cy="-210.85471"
       transform="rotate(-19.126597)"
       r="48.174213" /><ellipse
       style="fill:none;fill-opacity:1;stroke:#000000;stroke-width:0;stroke-dasharray:none"
       id="path1"
       cx="767.98627"
       cy="-184.62096"
       rx="34.954712"
       ry="34.955547"
       transform="matrix(-0.98532897,-0.17066582,0.17062638,-0.9853358,0,0)" /><path
       style="fill:none;stroke:#000000;stroke-width:0"
       d="M 46.287525,86.3616 C 41.199651,85.789571 35.457812,83.774618 31.336278,81.114841 24.542316,76.730449 19.583294,70.379481 17.071764,62.846422 c -1.160872,-3.481907 -1.593949,-5.981911 -1.703309,-9.832603 -0.180309,-6.348868 0.941849,-11.409168 3.741348,-16.871374 1.695035,-3.307244 3.427236,-5.703733 6.082901,-8.415655 2.96455,-3.02735 5.638095,-4.954493 9.500814,-6.848371 4.808038,-2.357365 8.690949,-3.321664 14.010166,-3.479344 4.855354,-0.14393 8.062864,0.311547 12.253531,1.740043 16.572184,5.649051 26.279805,22.53134 22.837396,39.715957 -2.101544,10.49096 -9.376715,19.727452 -19.181119,24.352173 -5.644416,2.662462 -12.38364,3.822448 -18.325967,3.154352 z m 8.850387,-18.991216 c 0,-0.953406 -0.08225,-0.992395 -2.094318,-0.992755 -1.76583,-3.16e-4 -2.687229,-0.339608 -2.883407,-1.061772 -0.06612,-0.243385 -0.128152,-3.250304 -0.137855,-6.682042 l -0.01765,-6.239523 h 3.105099 c 3.421797,0 4.864916,-0.213447 7.196683,-1.064436 5.853416,-2.136234 8.418989,-7.267809 5.836639,-11.674257 C 65.071911,37.82775 62.611549,35.929697 60.083082,34.980582 57.50668,34.013472 57.096507,33.985487 45.498448,33.985487 H 34.782022 v 0.773375 c 0,0.756166 0.01477,0.775816 0.663779,0.88309 0.365078,0.06034 1.205396,0.110592 1.867371,0.111663 1.380515,0.0022 2.179316,0.329118 2.432671,0.995494 0.102643,0.269968 0.169403,5.920484 0.169403,14.337938 0,15.294213 0.04247,14.702288 -1.083082,15.094658 -0.309548,0.107909 -1.221468,0.196199 -2.026491,0.196199 -1.935323,0 -2.023651,0.04332 -2.023651,0.99248 v 0.777597 h 10.177945 10.177945 z"
       id="path3"
       transform="translate(-837.7953)" /><path
       style="fill:#f9f9f9;stroke:#000000;stroke-width:0"
       d="m -792.36845,97.391346 c -7.01362,-0.788542 -14.92874,-3.566149 -20.61026,-7.232646 -9.36546,-6.043873 -16.20145,-14.798667 -19.6636,-25.18297 -1.60025,-4.799801 -2.19724,-8.24605 -2.34799,-13.554219 -0.24857,-8.751899 1.29833,-15.727511 5.15742,-23.257148 2.33661,-4.559028 4.72444,-7.862582 8.38527,-11.600959 4.08663,-4.173195 7.77209,-6.8297575 13.09686,-9.4404637 6.62785,-3.2496219 11.98044,-4.5789056 19.31297,-4.7962672 6.6931,-0.1984071 11.11464,0.4294668 16.89146,2.398645 22.84471,7.7872029 36.22664,31.0593969 31.4813,54.7483489 -2.89698,14.461763 -12.92578,27.194244 -26.44113,33.569412 -7.78082,3.670197 -17.07082,5.269235 -25.2623,4.348267 z M -780.16821,71.212 c 0,-1.314267 -0.1134,-1.368014 -2.88701,-1.36851 -2.4342,-4.36e-4 -3.70435,-0.468148 -3.97477,-1.46365 -0.0911,-0.335506 -0.17667,-4.480536 -0.19004,-9.211179 l -0.0243,-8.601167 h 4.28038 c 4.71693,0 6.70627,-0.294235 9.9206,-1.467323 8.06893,-2.944792 11.60556,-10.018656 8.0458,-16.092933 -1.47663,-2.519687 -4.86823,-5.136148 -8.35372,-6.4445 -3.55156,-1.333159 -4.11699,-1.371737 -20.10488,-1.371737 h -14.77258 v 1.066095 c 0,1.042374 0.0203,1.069462 0.91502,1.217339 0.50326,0.08318 1.66163,0.15245 2.57417,0.153926 1.90304,0.003 3.00419,0.453689 3.35343,1.372287 0.14149,0.37215 0.23352,8.161373 0.23352,19.764812 0,21.083035 0.0586,20.267068 -1.49303,20.80795 -0.4267,0.148751 -1.68379,0.270459 -2.79351,0.270459 -2.66784,0 -2.7896,0.05972 -2.7896,1.368131 v 1.071916 h 14.03028 14.03027 z"
       id="path4" /><path
       style="fill:#f9f9f9;stroke:#000000;stroke-width:0"
       d="m -787.24435,39.051616 c 0,-10.103696 0.0845,-11.008913 1.05742,-11.33235 0.29073,-0.09665 1.73643,-0.160527 3.21267,-0.14195 5.99236,0.07542 9.88067,2.085125 11.39665,5.890485 0.46284,1.161798 0.54236,1.826434 0.54236,4.533448 0,2.717445 -0.0786,3.369545 -0.54854,4.54998 -0.75041,1.885006 -2.12897,3.372821 -3.98873,4.30486 -2.27731,1.141298 -4.05987,1.512881 -8.07276,1.682821 l -3.59907,0.152416 z"
       id="path6" /><path
       style="fill:#f9f9f9;stroke:#000000;stroke-width:0"
       d="M -794.80849,48.737459 V 27.387043 h 2.56204 2.56205 v 21.350416 21.350413 h -2.56205 -2.56204 z"
       id="path7" /></g></svg>
